<svg width="83" height="38" viewBox="0 0 83 38" fill="none" xmlns="http://www.w3.org/2000/svg">
<path d="M0.792 19.08C0.792 15.4107 1.47467 12.1893 2.84 9.416C4.248 6.64267 6.14667 4.50933 8.536 3.016C10.9253 1.52266 13.592 0.775997 16.536 0.775997C19.0533 0.775997 21.2507 1.288 23.128 2.312C25.048 3.336 26.52 4.68 27.544 6.344V1.288H38.488V37H27.544V31.944C26.4773 33.608 24.984 34.952 23.064 35.976C21.1867 37 18.9893 37.512 16.472 37.512C13.5707 37.512 10.9253 36.7653 8.536 35.272C6.14667 33.736 4.248 31.5813 2.84 28.808C1.47467 25.992 0.792 22.7493 0.792 19.08ZM27.544 19.144C27.544 16.4133 26.776 14.2587 25.24 12.68C23.7467 11.1013 21.912 10.312 19.736 10.312C17.56 10.312 15.704 11.1013 14.168 12.68C12.6747 14.216 11.928 16.3493 11.928 19.08C11.928 21.8107 12.6747 23.9867 14.168 25.608C15.704 27.1867 17.56 27.976 19.736 27.976C21.912 27.976 23.7467 27.1867 25.24 25.608C26.776 24.0293 27.544 21.8747 27.544 19.144Z" fill="#0081A7"/>
<path d="M45.608 37V10.8182H51.5057V15.267H51.8125C52.358 13.767 53.2614 12.5966 54.5227 11.7557C55.7841 10.9034 57.2898 10.4773 59.0398 10.4773C60.8125 10.4773 62.3068 10.9091 63.5227 11.7727C64.75 12.625 65.6136 13.7898 66.1136 15.267H66.3864C66.9659 13.8125 67.9432 12.6534 69.3182 11.7898C70.7045 10.9148 72.3466 10.4773 74.2443 10.4773C76.6534 10.4773 78.6193 11.2386 80.142 12.7614C81.6648 14.2841 82.4261 16.5057 82.4261 19.4261V37H76.2386V20.3807C76.2386 18.7557 75.8068 17.5682 74.9432 16.8182C74.0795 16.0568 73.0227 15.6761 71.7727 15.6761C70.2841 15.6761 69.1193 16.142 68.2784 17.0739C67.4489 17.9943 67.0341 19.1932 67.0341 20.6705V37H60.983V20.125C60.983 18.7727 60.5739 17.6932 59.7557 16.8864C58.9489 16.0795 57.892 15.6761 56.5852 15.6761C55.6989 15.6761 54.892 15.9034 54.1648 16.358C53.4375 16.8011 52.858 17.4318 52.4261 18.25C51.9943 19.0568 51.7784 20 51.7784 21.0795V37H45.608Z" fill="black"/>
</svg>
